<mxfile host="Electron" agent="Mozilla/5.0 (Macintosh; Intel Mac OS X 10_15_7) AppleWebKit/537.36 (KHTML, like Gecko) draw.io/28.2.5 Chrome/138.0.7204.251 Electron/37.6.1 Safari/537.36" version="28.2.5">
  <diagram name="Page-1" id="U5bMhHxOVTiuiiuViLYi">
    <mxGraphModel dx="1002" dy="732" grid="0" gridSize="10" guides="1" tooltips="1" connect="1" arrows="1" fold="1" page="1" pageScale="1" pageWidth="850" pageHeight="1100" math="1" shadow="0">
      <root>
        <mxCell id="0" />
        <mxCell id="1" parent="0" />
        <mxCell id="k8utyObynGav9CogyMUv-6" value="" style="curved=1;endArrow=classic;html=1;rounded=0;strokeWidth=3;" parent="1" edge="1">
          <mxGeometry width="50" height="50" relative="1" as="geometry">
            <mxPoint x="274" y="426" as="sourcePoint" />
            <mxPoint x="524" y="196" as="targetPoint" />
            <Array as="points">
              <mxPoint x="539" y="391" />
              <mxPoint x="434" y="226" />
            </Array>
          </mxGeometry>
        </mxCell>
        <mxCell id="k8utyObynGav9CogyMUv-12" value="" style="endArrow=classic;html=1;rounded=0;strokeWidth=3;strokeColor=light-dark(#ff0000, #ededed);" parent="1" edge="1">
          <mxGeometry width="50" height="50" relative="1" as="geometry">
            <mxPoint x="478" y="367" as="sourcePoint" />
            <mxPoint x="548" y="291" as="targetPoint" />
          </mxGeometry>
        </mxCell>
        <mxCell id="E7Q4qk2Ofr3LrsjC4E45-4" value="&lt;font style=&quot;font-size: 20px;&quot;&gt;$$\mathcal{O}$$&lt;/font&gt;" style="text;html=1;align=center;verticalAlign=middle;resizable=0;points=[];autosize=1;strokeColor=none;fillColor=none;connectable=0;allowArrows=0;" parent="1" vertex="1">
          <mxGeometry x="445" y="191" width="167" height="36" as="geometry" />
        </mxCell>
        <mxCell id="RXMydWYd3P-XjBM6nVjg-1" value="" style="shape=parallelogram;perimeter=parallelogramPerimeter;whiteSpace=wrap;html=1;fixedSize=1;strokeWidth=3;fillColor=default;rotation=-155;flipH=1;opacity=60;connectable=0;allowArrows=0;" parent="1" vertex="1">
          <mxGeometry x="384" y="311" width="198" height="97" as="geometry" />
        </mxCell>
        <mxCell id="RXMydWYd3P-XjBM6nVjg-2" value="" style="shape=parallelogram;perimeter=parallelogramPerimeter;whiteSpace=wrap;html=1;fixedSize=1;strokeWidth=3;fillColor=#808080;rotation=-155;flipH=1;strokeColor=#999999;connectable=0;allowArrows=0;fillStyle=cross-hatch;gradientColor=default;opacity=60;gradientDirection=south;" parent="1" vertex="1">
          <mxGeometry x="384.0014566110523" y="310.9951355836068" width="198" height="97" as="geometry" />
        </mxCell>
        <mxCell id="RXMydWYd3P-XjBM6nVjg-3" value="" style="curved=1;endArrow=none;html=1;rounded=0;strokeWidth=3;endFill=0;" parent="1" edge="1">
          <mxGeometry width="50" height="50" relative="1" as="geometry">
            <mxPoint x="273" y="427" as="sourcePoint" />
            <mxPoint x="478" y="367" as="targetPoint" />
            <Array as="points">
              <mxPoint x="352" y="415" />
              <mxPoint x="446" y="389" />
            </Array>
          </mxGeometry>
        </mxCell>
        <mxCell id="RXMydWYd3P-XjBM6nVjg-6" value="&lt;font style=&quot;font-size: 20px;&quot;&gt;$$\mathcal{P}_{\perp}$$&lt;/font&gt;" style="text;html=1;align=center;verticalAlign=middle;resizable=0;points=[];autosize=1;strokeColor=none;fillColor=none;connectable=0;allowArrows=0;" parent="1" vertex="1">
          <mxGeometry x="421" y="404" width="235" height="36" as="geometry" />
        </mxCell>
        <mxCell id="RXMydWYd3P-XjBM6nVjg-7" value="&lt;font style=&quot;font-size: 20px; color: rgb(255, 0, 0);&quot;&gt;$$\hat t$$&lt;/font&gt;" style="text;html=1;align=center;verticalAlign=middle;resizable=0;points=[];autosize=1;strokeColor=none;fillColor=none;connectable=0;allowArrows=0;" parent="1" vertex="1">
          <mxGeometry x="469" y="272" width="107" height="36" as="geometry" />
        </mxCell>
        <mxCell id="W0IzAIZOcL-hLvkNjc6W-1" value="" style="endArrow=classic;html=1;rounded=0;strokeWidth=3;strokeColor=light-dark(#00FF00,#EDEDED);" parent="1" edge="1">
          <mxGeometry width="50" height="50" relative="1" as="geometry">
            <mxPoint x="478" y="367" as="sourcePoint" />
            <mxPoint x="468" y="313" as="targetPoint" />
          </mxGeometry>
        </mxCell>
        <mxCell id="W0IzAIZOcL-hLvkNjc6W-2" value="" style="endArrow=classic;html=1;rounded=0;strokeWidth=3;strokeColor=light-dark(#0000FF,#EDEDED);" parent="1" edge="1">
          <mxGeometry width="50" height="50" relative="1" as="geometry">
            <mxPoint x="478" y="367" as="sourcePoint" />
            <mxPoint x="529" y="367" as="targetPoint" />
          </mxGeometry>
        </mxCell>
        <mxCell id="W0IzAIZOcL-hLvkNjc6W-3" value="&lt;font style=&quot;font-size: 20px; color: rgb(0, 255, 0);&quot;&gt;$$\hat n_1$$&lt;/font&gt;" style="text;html=1;align=center;verticalAlign=middle;resizable=0;points=[];autosize=1;strokeColor=none;fillColor=none;connectable=0;allowArrows=0;" parent="1" vertex="1">
          <mxGeometry x="383" y="301" width="135" height="36" as="geometry" />
        </mxCell>
        <mxCell id="W0IzAIZOcL-hLvkNjc6W-4" value="&lt;font style=&quot;font-size: 20px; color: rgb(0, 0, 255);&quot;&gt;$$\hat n_2$$&lt;/font&gt;" style="text;html=1;align=center;verticalAlign=middle;resizable=0;points=[];autosize=1;strokeColor=none;fillColor=none;connectable=0;allowArrows=0;" parent="1" vertex="1">
          <mxGeometry x="459" y="368" width="135" height="36" as="geometry" />
        </mxCell>
      </root>
    </mxGraphModel>
  </diagram>
</mxfile>
